<?xml version="1.0" encoding="UTF-8" standalone="no"?>
<!-- Created with Inkscape (http://www.inkscape.org/) -->

<svg
   version="1.1"
   id="svg2"
   width="1232.5081"
   height="404.65701"
   viewBox="0 0 1232.5081 404.65702"
   sodipodi:docname="arriva-logo.svg"
   inkscape:version="1.2.2 (b0a8486541, 2022-12-01)"
   xmlns:inkscape="http://www.inkscape.org/namespaces/inkscape"
   xmlns:sodipodi="http://sodipodi.sourceforge.net/DTD/sodipodi-0.dtd"
   xmlns="http://www.w3.org/2000/svg"
   xmlns:svg="http://www.w3.org/2000/svg">
  <defs
     id="defs6">
    <clipPath
       clipPathUnits="userSpaceOnUse"
       id="clipPath18">
      <path
         d="M 0,807.874 H 1462.963 V 0 H 0 Z"
         id="path16" />
    </clipPath>
  </defs>
  <sodipodi:namedview
     id="namedview4"
     pagecolor="#ffffff"
     bordercolor="#000000"
     borderopacity="0.25"
     inkscape:showpageshadow="2"
     inkscape:pageopacity="0.0"
     inkscape:pagecheckerboard="0"
     inkscape:deskcolor="#d1d1d1"
     showgrid="false"
     inkscape:zoom="0.73822937"
     inkscape:cx="975.30663"
     inkscape:cy="539.12783"
     inkscape:window-width="1920"
     inkscape:window-height="1011"
     inkscape:window-x="0"
     inkscape:window-y="32"
     inkscape:window-maximized="1"
     inkscape:current-layer="g10">
    <inkscape:page
       x="0"
       y="0"
       id="page8"
       width="1232.5081"
       height="404.65701" />
  </sodipodi:namedview>
  <g
     id="g10"
     inkscape:groupmode="layer"
     inkscape:label="Page 1"
     transform="matrix(1.3333333,0,0,-1.3333333,0,1077.1653)">
    <g
       id="g12"
       transform="translate(-269.2911,269.291)">
      <g
         id="g14"
         clip-path="url(#clipPath18)">
        <g
           id="g20"
           transform="translate(722.333,268.5129)">
          <path
             d="m 0,0 c 0,-7.179 5.014,-12.989 12.419,-12.989 7.293,0 12.382,5.582 12.382,12.989 0,7.367 -5.089,12.951 -12.382,12.951 C 4.9,12.951 0,7.178 0,0 m 30.649,-18.041 h -6.228 v 4.824 c -2.849,-3.382 -7.064,-5.584 -12.723,-5.584 -10.14,0 -18.041,7.9 -18.041,18.801 0,10.899 7.901,18.8 18.041,18.8 5.659,0 9.874,-2.204 12.723,-5.621 v 4.861 h 6.228 z"
             style="fill:#575756;fill-opacity:1;fill-rule:nonzero;stroke:none"
             id="path22" />
        </g>
        <g
           id="g24"
           transform="translate(913.3643,281.6154)">
          <path
             d="m 0,0 -3.987,-4.216 c -2.659,2.583 -5.736,4.065 -9.572,4.065 -6.951,0 -12.229,-5.394 -12.229,-12.952 0,-7.557 5.278,-12.989 12.229,-12.989 3.836,0 7.216,1.709 9.723,4.14 L 0,-26.244 c -3.267,-3.683 -8.051,-5.659 -13.406,-5.659 -11.167,0 -18.725,8.09 -18.725,18.8 0,10.71 7.558,18.8 18.725,18.8 C -8.051,5.697 -3.229,3.722 0,0"
             style="fill:#575756;fill-opacity:1;fill-rule:nonzero;stroke:none"
             id="path26" />
        </g>
        <g
           id="g28"
           transform="translate(923.583,268.5129)">
          <path
             d="m 0,0 c 0,-7.558 5.47,-12.989 12.724,-12.989 7.215,0 12.723,5.431 12.723,12.989 0,7.558 -5.508,12.951 -12.723,12.951 C 5.47,12.951 0,7.558 0,0 m 31.827,0 c 0,-10.711 -8.165,-18.801 -19.103,-18.801 -10.938,0 -19.067,8.09 -19.067,18.801 0,10.71 8.129,18.8 19.067,18.8 10.938,0 19.103,-8.09 19.103,-18.8"
             style="fill:#575756;fill-opacity:1;fill-rule:nonzero;stroke:none"
             id="path30" />
        </g>
        <g
           id="g32"
           transform="translate(1021.7998,272.8801)">
          <path
             d="m 0,0 v -22.408 h -6.229 v 20.395 c 0,6.646 -3.644,10.558 -9.913,10.558 -5.962,0 -10.633,-4.139 -10.633,-10.71 v -20.243 h -6.229 v 20.395 c 0,6.646 -3.646,10.558 -9.913,10.558 -5.81,0 -10.671,-3.987 -10.671,-10.71 v -20.243 h -6.191 v 36.081 h 6.153 v -4.71 c 2.963,4.063 7.634,5.47 11.811,5.47 6.115,0 10.939,-2.735 13.332,-7.255 2.962,5.469 8.544,7.255 13.443,7.255 C -6.113,14.433 0,8.659 0,0"
             style="fill:#575756;fill-opacity:1;fill-rule:nonzero;stroke:none"
             id="path34" />
        </g>
        <g
           id="g36"
           transform="translate(1035.0615,268.5129)">
          <path
             d="m 0,0 c 0,-7.407 5.089,-12.989 12.382,-12.989 7.48,0 12.381,5.81 12.381,12.989 0,7.178 -5.014,12.951 -12.381,12.951 C 5.089,12.951 0,7.367 0,0 m 31.143,0 c 0,-10.901 -7.938,-18.801 -18.041,-18.801 -5.697,0 -9.912,2.202 -12.723,5.584 V -33.232 H -5.812 V 18.04 H 0.379 V 13.216 C 3.19,16.596 7.405,18.8 13.102,18.8 23.205,18.8 31.143,10.899 31.143,0"
             style="fill:#575756;fill-opacity:1;fill-rule:nonzero;stroke:none"
             id="path38" />
        </g>
        <g
           id="g40"
           transform="translate(1077.9424,268.5129)">
          <path
             d="m 0,0 c 0,-7.179 5.013,-12.989 12.42,-12.989 7.292,0 12.382,5.582 12.382,12.989 0,7.367 -5.09,12.951 -12.382,12.951 C 4.899,12.951 0,7.178 0,0 m 30.649,-18.041 h -6.228 v 4.824 c -2.848,-3.382 -7.065,-5.584 -12.724,-5.584 -10.141,0 -18.04,7.9 -18.04,18.801 0,10.899 7.899,18.8 18.04,18.8 5.659,0 9.876,-2.204 12.724,-5.621 v 4.861 h 6.228 z"
             style="fill:#575756;fill-opacity:1;fill-rule:nonzero;stroke:none"
             id="path42" />
        </g>
        <g
           id="g44"
           transform="translate(1150.9434,272.8801)">
          <path
             d="m 0,0 v -22.408 h -6.23 v 20.395 c 0,6.646 -3.646,10.558 -9.912,10.558 -5.812,0 -10.673,-3.987 -10.673,-10.71 v -20.243 h -6.191 v 36.081 h 6.153 v -4.71 c 2.962,4.063 7.633,5.47 11.812,5.47 C -6.153,14.433 0,8.659 0,0"
             style="fill:#575756;fill-opacity:1;fill-rule:nonzero;stroke:none"
             id="path46" />
        </g>
        <g
           id="g48"
           transform="translate(1164.541,235.09)">
          <path
             d="M 0,0 H -6.875 L 6.457,23.093 -9.988,51.463 h 6.951 L 9.951,29.281 22.293,51.463 h 6.838 z"
             style="fill:#575756;fill-opacity:1;fill-rule:nonzero;stroke:none"
             id="path50" />
        </g>
        <g
           id="g52"
           transform="translate(858.0283,246.4279)">
          <path
             d="m 0,0 c 0,-1.525 -1.113,-2.752 -2.64,-2.752 h -76.691 c -1.526,0 -2.639,1.227 -2.639,2.752 v 47.958 c 0,1.526 1.113,2.745 2.639,2.745 H -2.64 c 1.527,0 2.64,-1.219 2.64,-2.745 z m -2.64,57.521 h -76.691 c -5.277,0 -9.648,-4.171 -9.648,-9.563 V 0 c 0,-5.391 4.371,-9.669 9.648,-9.669 H -2.64 c 5.279,0 9.65,4.278 9.65,9.669 v 47.958 c 0,5.392 -4.371,9.563 -9.65,9.563"
             style="fill:#575756;fill-opacity:1;fill-rule:nonzero;stroke:none"
             id="path54" />
        </g>
        <g
           id="g56"
           transform="translate(805.4121,269.6447)">
          <path
             d="m 0,0 c 0,8.855 -0.92,15.779 -10.462,15.779 h -2.14 v -29.933 h 3.759 C -3.252,-14.154 0,-9.676 0,0 M -7.01,-21.284 H -23.163 V 22.702 H -7.01 c 11.374,0 17.658,-7.13 17.658,-21.79 0,-12.727 -4.252,-22.09 -17.658,-22.196"
             style="fill:#575756;fill-opacity:1;fill-rule:nonzero;stroke:none"
             id="path58" />
        </g>
        <g
           id="g60"
           transform="translate(835.4775,255.4924)">
          <path
             d="M 0,0 H -4.331 V 11.302 H 0.286 C 5.777,11.302 7.117,8.097 7.117,5.65 7.117,0 1.673,0 0,0 m -4.331,30.053 h 3.332 c 4.73,0 6.61,-1.653 6.61,-5.291 0,-2.892 -2.073,-5.324 -5.751,-5.324 H -4.331 Z M 8.482,15.88 c 3.113,0.826 7.691,4.378 7.691,10.242 0,0.912 -0.194,10.715 -12.555,10.715 H -14.787 V -7.13 H 0.76 c 4.118,0 16.952,0 16.952,12.367 0,3.086 -1.259,8.904 -9.23,10.643"
             style="fill:#575756;fill-opacity:1;fill-rule:nonzero;stroke:none"
             id="path62" />
        </g>
        <g
           id="g64"
           transform="translate(922.3984,469.05)">
          <path
             d="m 0,0 52.259,-122.523 c 2.665,-6.466 6.615,-9.468 12.44,-9.468 6.008,0 10.202,3.091 12.821,9.447 L 129.739,0 H 107.738 L 64.685,-102.431 21.857,0 Z"
             style="fill:#009cb5;fill-opacity:1;fill-rule:nonzero;stroke:none"
             id="path66" />
        </g>
        <g
           id="g68"
           transform="translate(846.2021,472.0544)">
          <path
             d="m 0,0 c -28.297,0 -48.063,-19.764 -48.063,-48.064 v -86.892 c 12.527,0.603 19.943,7.998 19.943,20.038 v 68.02 c 0,16.786 11.565,28.51 28.12,28.51 8.102,0 12.298,-2.178 17.72,-7.025 l 11.834,14.134 C 20.794,-3.287 12.12,0 0,0"
             style="fill:#009cb5;fill-opacity:1;fill-rule:nonzero;stroke:none"
             id="path70" />
        </g>
        <g
           id="g72"
           transform="translate(764.4141,472.0544)">
          <path
             d="m 0,0 c -28.299,0 -48.063,-19.764 -48.063,-48.064 v -86.892 c 12.525,0.603 19.942,7.998 19.942,20.038 v 68.02 c 0,16.786 11.564,28.51 28.121,28.51 8.101,0 12.297,-2.178 17.719,-7.025 l 11.833,14.134 C 20.792,-3.287 12.119,0 0,0"
             style="fill:#009cb5;fill-opacity:1;fill-rule:nonzero;stroke:none"
             id="path74" />
        </g>
        <g
           id="g76"
           transform="translate(1121.0479,355.4455)">
          <path
             d="m 0,0 c -26.885,0 -47.944,21.573 -47.944,49.112 0,27.537 21.059,49.109 47.944,49.109 27.105,0 48.335,-21.572 48.335,-49.109 C 48.335,21.573 27.105,0 0,0 m 0,116.609 c -38.701,0 -67.887,-29.018 -67.887,-67.497 0,-38.482 29.186,-67.499 67.887,-67.499 16.491,0 32.661,6.202 45.533,17.462 l 2.316,2.026 0.466,-3.039 c 1.509,-9.809 8.92,-15.853 19.961,-16.407 V 49.112 C 68.276,86.96 38.285,116.609 0,116.609"
             style="fill:#009cb5;fill-opacity:1;fill-rule:nonzero;stroke:none"
             id="path78" />
        </g>
        <g
           id="g80"
           transform="translate(621.8535,355.4455)">
          <path
             d="m 0,0 c -26.884,0 -47.945,21.573 -47.945,49.112 0,27.537 21.061,49.109 47.945,49.109 27.103,0 48.334,-21.572 48.334,-49.109 C 48.334,21.573 27.103,0 0,0 m 0,116.609 c -38.701,0 -67.886,-29.018 -67.886,-67.497 0,-38.482 29.185,-67.499 67.886,-67.499 16.491,0 32.661,6.202 45.532,17.462 l 2.67,2.336 0.131,-3.544 c 0.349,-9.432 8.112,-15.678 19.943,-16.217 v 67.462 c 0,37.848 -29.99,67.497 -68.276,67.497"
             style="fill:#009cb5;fill-opacity:1;fill-rule:nonzero;stroke:none"
             id="path82" />
        </g>
        <g
           id="g84"
           transform="translate(888.7939,469.05)">
          <path
             d="m 0,0 v -131.951 c 12.526,0.602 19.942,7.998 19.942,20.037 V 0 Z"
             style="fill:#009cb5;fill-opacity:1;fill-rule:nonzero;stroke:none"
             id="path86" />
        </g>
        <g
           id="g88"
           transform="translate(898.8086,512.6979)">
          <path
             d="m 0,0 c -7.214,0 -13.081,-5.868 -13.081,-13.08 0,-6.88 5.989,-12.693 13.081,-12.693 6.879,0 12.692,5.813 12.692,12.693 C 12.692,-5.99 6.879,0 0,0"
             style="fill:#009cb5;fill-opacity:1;fill-rule:nonzero;stroke:none"
             id="path90" />
        </g>
        <g
           id="g92"
           transform="translate(417.1294,400.4982)">
          <path
             d="m 0,0 c 11.244,-2.872 21.479,-5.933 30.604,-9.061 3.774,-7.302 7.142,-14.126 10.516,-21.168 6.256,-0.176 12.669,-0.216 18.911,0.277 -1.793,3.862 -3.59,7.478 -5.52,11.448 6.245,-2.88 12.043,-5.822 17.635,-9.85 13.976,3.024 13.94,7.728 8.978,12.3 C 61.92,1.642 13.27,14.698 -10.66,20.062 -8.251,15.597 -1.609,3.133 0,0"
             style="fill:#009cb5;fill-opacity:1;fill-rule:nonzero;stroke:none"
             id="path94" />
        </g>
        <g
           id="g96"
           transform="translate(295.4346,412.405)">
          <path
             d="m 0,0 c 3.498,0.766 7.564,1.365 13.086,1.725 3.079,5.69 6.237,11.339 9.467,16.945 C 5.771,18.222 -2.599,15.414 -6.378,13.115 -10.516,10.598 -8.651,6.191 0,0"
             style="fill:#009cb5;fill-opacity:1;fill-rule:nonzero;stroke:none"
             id="path98" />
        </g>
        <g
           id="g100"
           transform="translate(508.3721,377.1291)">
          <path
             d="m 0,0 c -5.771,-26.14 -102.19,-8.692 -118.518,-5.415 -20.607,4.137 -116.029,27.958 -109.835,52.734 -1.886,-3.942 -3.258,-12.826 -3.772,-16.553 -0.543,-3.94 0.872,-8.453 2.255,-10.578 3.741,-5.745 11.538,-10.868 21.543,-15.749 -7.289,-15.137 -29.189,-62.619 -29.927,-86.788 -0.298,-9.778 2.036,-10.284 8.844,-5.985 1.98,1.25 5.485,4.202 7.495,6.147 4.324,25.483 21.892,63.263 29.688,79.691 9.762,-3.761 19.63,-7.206 29.677,-10.114 -9.048,-15.434 -35.587,-58.382 -56.339,-76.5 -10.996,-9.601 -16.281,-10.147 -20.192,-8.327 1.421,-1.72 8.849,-5.864 11.302,-7.009 4.542,-2.12 8.028,-2.88 12.258,-1.23 21.554,8.419 56.964,63.98 70.682,88.269 18.449,-5.043 35.054,-8.302 54.979,-10.823 10.589,-16.335 35.955,-56.209 56.38,-72.6 8.045,-6.457 12.433,-6.795 18.194,-4.004 5.536,2.684 8.581,4.897 11.342,7.23 -1.933,-0.531 -5.2,-0.588 -10.762,2.828 -18.699,11.485 -46.988,55.681 -52.511,63.96 9.569,-0.916 18.908,-1.104 28.543,-0.695 6.555,-15.303 13.1,-31.666 16.983,-47.892 2.784,-2.894 6.645,-7.042 12.605,-10.51 3.24,-1.884 4.245,-0.991 4.439,2.506 0.842,15.185 -11.75,45.979 -16.397,57.578 10.055,2.077 15.093,5.996 17.383,12.268 C -2.301,-13.833 0.091,-4.492 0,0"
             style="fill:#009cb5;fill-opacity:1;fill-rule:nonzero;stroke:none"
             id="path102" />
        </g>
        <g
           id="g104"
           transform="translate(354.9156,475.447)">
          <path
             d="m 0,0 c -16.531,-22.811 -30.694,-46.838 -43.799,-71.754 5.29,-2.532 10.759,-4.79 16.235,-6.888 3.1,5.857 5.983,11.31 9.245,17.078 8.245,-0.539 17.037,-1.452 26.153,-2.698 2.643,5.323 5.22,10.678 7.708,16.075 -8.435,1.236 -16.615,2.19 -24.388,2.842 5.304,8.796 10.811,17.472 16.584,25.967 3.301,-7.784 6.779,-15.493 10.392,-23.136 3.205,7.132 6.267,14.326 9.135,21.6 C 19.236,-2.242 8.535,21.968 4.846,43.899 3.848,49.835 2.878,59.323 8.447,63.136 4.538,61.757 -2.534,57.658 -5.609,55.361 -9.023,52.813 -10.826,48.562 -10.977,44.601 -11.411,33.206 -5.464,15.212 0,0"
             style="fill:#009cb5;fill-opacity:1;fill-rule:nonzero;stroke:none"
             id="path106" />
        </g>
        <g
           id="g108"
           transform="translate(358.2036,386.8215)">
          <path
             d="m 0,0 c 5.124,-1.517 12.015,-3.382 17.332,-4.561 4.11,7.738 7.806,15.035 11.468,22.592 5.033,-9.659 9.994,-18.78 15.375,-28.25 7.335,-1.32 14.811,-2.51 22.201,-3.473 -5.852,9.912 -23.369,41.141 -28.306,51.743 4.801,10.902 9.278,21.956 13.174,33.217 7.031,-10.972 14.418,-23.052 22.101,-36.624 7.977,-2.232 15.839,-4.64 23.656,-7.379 -12.129,22.454 -25.058,44.217 -39.342,65.373 1.626,6.713 3.066,13.765 2.665,20.71 -0.239,4.152 -1.568,8.58 -5.145,11.267 -3.44,2.583 -10.819,6.663 -14.138,7.842 4.491,-3.665 4.473,-10.773 4.098,-16.005 C 43.439,92.763 24.56,44.839 0,0"
             style="fill:#009cb5;fill-opacity:1;fill-rule:nonzero;stroke:none"
             id="path110" />
        </g>
        <g
           id="g112"
           transform="translate(372.7359,497.798)">
          <path
             d="m 0,0 c 0.924,-3.027 5.598,-15.696 6.809,-18.648 3.052,3.821 5.885,7.158 8.5,10.054 1.35,-1.808 2.724,-3.681 4.128,-5.626 1.57,5.586 4.15,15.881 4.2,21.688 0.082,9.553 -1.64,11.316 -9.824,5.505 C 8.667,9.319 4.214,4.668 0,0"
             style="fill:#009cb5;fill-opacity:1;fill-rule:nonzero;stroke:none"
             id="path114" />
        </g>
        <g
           id="g116"
           transform="translate(368.3496,512.9621)">
          <path
             d="M 0,0 C 1.395,-1.45 2.86,-3.041 4.39,-4.764 8.341,-0.824 12.596,3.05 17.5,5.775 13.488,10.143 9.207,14.612 4.17,17.816 -0.678,20.899 -2.347,21.121 -2.131,13.326 -2.028,9.579 -0.87,3.645 0,0"
             style="fill:#009cb5;fill-opacity:1;fill-rule:nonzero;stroke:none"
             id="path118" />
        </g>
      </g>
    </g>
  </g>
</svg>
