<svg xmlns="http://www.w3.org/2000/svg" viewBox="0 0 235 65" height="65" width="235"><path fill="#de091c" d="M84.106 45.06h-2.698a.893.893 0 01-1.015-1.018V17.869c0-.704.314-1.017 1.015-1.017h7.228a9.505 9.505 0 016.603 2.247 8.519 8.519 0 012.502 6.463 8.487 8.487 0 01-2.511 6.325 9.59 9.59 0 01-6.79 2.428h-2.147c-.823 0-1.175.35-1.175 1.17v8.557a.893.893 0 01-1.012 1.018zm2.187-23.753c-.845 0-1.175.328-1.175 1.17v6.212c0 .821.352 1.172 1.175 1.172h2.187c2.711 0 4.534-1.713 4.534-4.257 0-2.77-1.568-4.296-4.414-4.296z" data-name="Fill 1"/><path fill="#de091c" d="M103.986 45.448c-3.214 0-5.546-2.497-5.546-5.938a5.552 5.552 0 012.227-4.952c1.452-1.008 3.675-1.494 6.797-1.494h1.602a.515.515 0 00.585-.586v-.585c0-2.156-.958-3.204-2.93-3.204a11.448 11.448 0 00-5.118 1.445.993.993 0 01-.474.13.94.94 0 01-.854-.675l-.782-1.682a.957.957 0 01.432-1.29 16.228 16.228 0 017.38-1.99c2.524 0 4.296.72 5.416 2.2.983 1.3 1.46 3.198 1.46 5.805v11.41c0 .706-.312 1.017-1.014 1.017h-2.145a.915.915 0 01-.977-.625l-.12-.391a.529.529 0 00-.48-.384.634.634 0 00-.38.148 8.956 8.956 0 01-5.08 1.641zm2.228-8.673c-2.06 0-3.242.913-3.242 2.504a2.332 2.332 0 002.656 2.459 4.97 4.97 0 003.359-1.41 2.122 2.122 0 00.664-1.598v-1.29c0-.473-.192-.666-.663-.666z" data-name="Fill 3"/><path fill="#de091c" d="M118.714 26.072a.922.922 0 011.016-1.059h2.342c.705 0 1.018.392 1.135 1.06l.117 1.131a.397.397 0 00.743.157 5.782 5.782 0 014.844-2.736.728.728 0 01.742.78v2.854a.789.789 0 01-.9.899h-.624a5.157 5.157 0 00-4.881 5.273v9.61a.893.893 0 01-1.016 1.017h-2.502a.892.892 0 01-1.016-1.017z" data-name="Fill 5"/><path fill="#de091c" d="M137.738 45.448a5.586 5.586 0 01-4.044-1.612 5.83 5.83 0 01-1.582-4.131v-9.337a5.829 5.829 0 011.582-4.13 5.587 5.587 0 014.044-1.613 9.26 9.26 0 014.728 1.523.72.72 0 00.38.111c.132 0 .44-.049.44-.503v-7.887a.894.894 0 011.016-1.017h2.5a.893.893 0 011.015 1.017v26.173a.894.894 0 01-1.015 1.018h-2.148a.919.919 0 01-.978-.626l-.117-.391a.53.53 0 00-.478-.383.627.627 0 00-.379.149 9.524 9.524 0 01-4.964 1.64zm1.64-16.836c-1.788 0-2.733 1.067-2.733 3.085v6.68c0 2.045.946 3.123 2.734 3.123a5.494 5.494 0 003.242-1.251 1.97 1.97 0 00.665-1.562v-7.304a1.839 1.839 0 00-.665-1.523 5.507 5.507 0 00-3.242-1.248z" data-name="Fill 7"/><path fill="#de091c" d="M168.052 44.042a.89.89 0 01-1.014 1.02h-2.15a.914.914 0 01-.976-.625l-.119-.392a.512.512 0 00-.86-.235 9.45 9.45 0 01-4.962 1.641 5.467 5.467 0 01-5.625-5.746V26.073c0-.667.274-1.059 1.014-1.059h2.503c.742 0 1.017.392 1.017 1.06v12.303c0 2.07.978 3.123 2.734 3.123a5.475 5.475 0 003.245-1.252 1.99 1.99 0 00.664-1.56V26.072c-.002-.667.27-1.059 1.013-1.059h2.502c.742 0 1.015.392 1.015 1.06z" data-name="Fill 9"/><path fill="#de091c" d="M182.656 45.447a9.671 9.671 0 01-4.958-1.64.636.636 0 00-.382-.15.533.533 0 00-.48.384l-.116.39a.913.913 0 01-.97.628h-2.154a.907.907 0 01-1.014-1.018V17.868a.907.907 0 011.014-1.017h2.5a.893.893 0 011.02 1.017v7.89c0 .452.309.503.442.503a.713.713 0 00.378-.111 9.328 9.328 0 014.72-1.524 5.59 5.59 0 014.045 1.612 5.827 5.827 0 011.582 4.13v9.338a5.83 5.83 0 01-1.582 4.13 5.59 5.59 0 01-4.045 1.611zm-1.637-16.835a5.508 5.508 0 00-3.24 1.247 1.86 1.86 0 00-.664 1.523v7.306a1.969 1.969 0 00.666 1.562 5.486 5.486 0 003.241 1.252c1.79 0 2.736-1.081 2.736-3.123v-6.683c-.003-2.018-.95-3.084-2.739-3.084z" data-name="Fill 11"/><path fill="#de091c" d="M195.94 45.057h-2.5a.894.894 0 01-1.016-1.016V26.07c0-.722.324-1.058 1.017-1.058h2.5c.693 0 1.017.337 1.017 1.058v17.97a.894.894 0 01-1.018 1.016zm-1.25-22.464a2.647 2.647 0 01-2.853-2.85 2.648 2.648 0 012.853-2.854 2.647 2.647 0 012.852 2.853 2.646 2.646 0 01-2.852 2.851z" data-name="Fill 13"/><path fill="#de091c" d="M209.027 24.626c4.49 0 7.071 2.655 7.385 6.717a.88.88 0 01-.976 1.059h-2.386c-.742 0-1.015-.236-1.095-.705-.351-2.032-1.41-3.123-2.928-3.123-2.62 0-3.79 2.108-3.79 6.484 0 4.332 1.173 6.448 3.79 6.448 1.521 0 2.578-1.057 2.928-3.123.08-.467.353-.705 1.095-.705h2.385a.893.893 0 01.977 1.052c-.314 4.064-2.893 6.72-7.385 6.72-5.975-.002-8.32-3.867-8.32-10.394 0-6.565 2.345-10.43 8.32-10.43" data-name="Fill 15"/><path fill="#de091c" d="M227.584 45.448a7.824 7.824 0 01-5.973-2.395c-1.611-1.762-2.428-4.4-2.428-7.84 0-3.62.78-6.355 2.317-8.136a7.591 7.591 0 016.044-2.45c4.949 0 7.455 3.351 7.455 9.96v1.485a.907.907 0 01-.976.935h-9.372a.658.658 0 00-.518.195.88.88 0 00-.146.705 3.97 3.97 0 003.909 3.476 9.446 9.446 0 004.172-1.323l.24-.12a1.1 1.1 0 01.466-.115.974.974 0 01.864.658l.742 1.683a.99.99 0 01-.588 1.367 12.776 12.776 0 01-6.208 1.915zm-.391-16.875c-1.966 0-3.282 1.57-3.282 3.905 0 .56.247.82.778.82h4.809c.566 0 .819-.252.819-.82-.001-2.411-1.198-3.905-3.124-3.905z" data-name="Fill 17"/><path fill="#de091c" d="M62.725 23.065c.202 2.15.291 3.823.291 5.428a29.518 29.518 0 01-1.907 10.886 32.06 32.06 0 01-8.038 11.556c-8.932 8.562-21.272 13.777-21.394 13.829l-.166.067-.165-.067c-.123-.052-12.461-5.267-21.396-13.83A32.075 32.075 0 011.913 39.38a29.499 29.499 0 01-1.91-10.886c0-1.604.09-3.277.292-5.428A125.407 125.407 0 015.057.47l.092-.3h52.723l.092.302a125.165 125.165 0 014.761 22.596" data-name="Fill 19"/><path fill="#fffffe" d="M21.357 20.54c-.006.027-.008.012-.02.058a2.116 2.116 0 01-.473 1.007c-.292.329-.48.396-.767.337a.698.698 0 01-.429-.295 2.954 2.954 0 00.338-.252 1.018 1.018 0 00.344-.59.97.97 0 01-.85.463 1.378 1.378 0 01-1.087-.729 1.157 1.157 0 01-.119-1.09c.046-.119.059-.196-.016-.22a.1.1 0 00-.117.034.855.855 0 01-.11-.474 1.466 1.466 0 01.227-.858.583.583 0 01.354-.302.827.827 0 01.235-.006.14.14 0 01.035.007 2.25 2.25 0 01.876.428 3.109 3.109 0 01.633.598 1.68 1.68 0 00-.04.97 1.565 1.565 0 00.404.598 1.546 1.546 0 00.587.32" data-name="Fill 21"/><path fill="#fffffe" d="M21.13 20.189a1.164 1.164 0 01-.484-.596 1.131 1.131 0 01-.01-.843c.052-.122.066-.136.034-.192a2.029 2.029 0 00-.144-.195 2.836 2.836 0 00-1.321-.907 1.216 1.216 0 00-.584-.02s-.087.021-.16.049a1.158 1.158 0 01.554-.57 4.621 4.621 0 00.302-.492 7.724 7.724 0 00.564-1.426 10.46 10.46 0 01.624-1.612 5.852 5.852 0 01.623-1 .965.965 0 00.249-.742v-.038a1.862 1.862 0 01.028-.705 1.648 1.648 0 01.589-.907 4.793 4.793 0 00.912-1.023 4.647 4.647 0 00.28-.577 1.696 1.696 0 01-1.391-.385 1.385 1.385 0 01-.312-.841 2.304 2.304 0 01.073-.781 1.696 1.696 0 01.287-.574s-.338 1.072.384 1.392a1.247 1.247 0 001.345-.385c.111-.12.238-.285.383-.458-.006 0-.011-.011-.017-.016a1.82 1.82 0 01-.683-.967c-.09-.532-.085-1.015-.123-1.218a3.526 3.526 0 00-.23-.604.201.201 0 01.07-.287c.117-.085.259-.141.52.017a3.776 3.776 0 01.673.647 4.54 4.54 0 00.735.56 7.139 7.139 0 00.873.525 14.434 14.434 0 01-.078-.685c-.033-.375-.096-.907-.1-.982a1.047 1.047 0 00-.102-.31c-.075-.145-.13-.301-.182-.435-.052-.134-.1-.332.075-.442a.604.604 0 01.683.06c.267.174.443.463.712.596a4.433 4.433 0 011.435 1.201 3.181 3.181 0 01.67 1.454l.241-.038A4.169 4.169 0 0030 5.066a3.851 3.851 0 00.98-1.045 3.62 3.62 0 012.317-1.601 15.768 15.768 0 001.713-.16c.429-.164.477-.176.477-.176a2.188 2.188 0 01-.614.758 4.08 4.08 0 00-1.502 1.055 5.12 5.12 0 00-.377.618 4.984 4.984 0 011.96-1.158 7.024 7.024 0 012.953 0 3.99 3.99 0 002.116.029 3.39 3.39 0 01.621-.208 5.936 5.936 0 00-.556.855 2.237 2.237 0 01-1.202 1.198 4.735 4.735 0 01-.853.319 10.91 10.91 0 001.36.1 13.427 13.427 0 001.841-.224 6.014 6.014 0 012.716.022 4.231 4.231 0 011.192.647 2.303 2.303 0 00-1.618.66 9.37 9.37 0 01-1.24 1.162c-.342.18-.683.32-.683.32a7.802 7.802 0 011.744.768 7.037 7.037 0 001.863.787 3.11 3.11 0 001.92-.232 1.351 1.351 0 01.422-.156 3.099 3.099 0 00-.868 1.318 3.033 3.033 0 01-1.322 1.489 2.447 2.447 0 01-1.18.186 4.008 4.008 0 011.814 1.267c1.032 1.109 1.404 1.173 2.027 1.318a2.317 2.317 0 001.274-.037s-.695.858-1.143 1.31a2.664 2.664 0 01-2.502.94 5.472 5.472 0 01-1.32-.423 2.783 2.783 0 00-1.048-.175 4.914 4.914 0 011.387 1.18 3.21 3.21 0 001.857 1.209 4.8 4.8 0 001.773-.101 2.972 2.972 0 01.75.018s-.369.042-.862.69a4.306 4.306 0 01-2.555 2.036 5.642 5.642 0 01-2.76-.491 5.357 5.357 0 001.273 1.2 3.588 3.588 0 001.95.293 3.79 3.79 0 01.511-.063 1.612 1.612 0 00-.67.51 2.797 2.797 0 01-1.695.96 2.916 2.916 0 01-1.814-.256 1.848 1.848 0 01-.842-1.089 5.653 5.653 0 01-.115-.806c-.085-.639-.054-1.894-.066-2.29a14.104 14.104 0 00-1.257-5.994 13.384 13.384 0 00-4.27-5.138 11.098 11.098 0 00-3.155-1.692 14.582 14.582 0 00-1.933-.547s.798.302 1.906.833a15.036 15.036 0 014.262 3.123 11.729 11.729 0 012.585 3.689 13.454 13.454 0 011.007 4.472c.042.665.068 2.964.141 3.94a3.5 3.5 0 00.993 2.115 5.275 5.275 0 001.36 1.04 15.996 15.996 0 01-4.433 1.705 13.944 13.944 0 01-8.949-1.035 11.42 11.42 0 01-2.188-1.346c.604-.872 1.251-1.576 1.905-2.633a4.447 4.447 0 00.76-3.557 2.379 2.379 0 00-1.08-1.433 3.718 3.718 0 001.291-4.699c-.295-.642-.59-.764-.59-.764a3.627 3.627 0 01.461 2.167 3.403 3.403 0 01-2.299 3.17 3.344 3.344 0 01-1.735 0 8.247 8.247 0 01-1.296-.471 4.257 4.257 0 00.539.43 3.132 3.132 0 001.078.514 4.317 4.317 0 01-1.154.867 4.936 4.936 0 01-1.34.632c-.336.083-.223.54-.218.845a1.979 1.979 0 01-.052.838c-.1.266-.12.239-.12.239-.183-.202-.657-.855-.657-.855a1.166 1.166 0 00.182-.416 1.2 1.2 0 00-.094-.767.618.618 0 00-.336-.318 1.16 1.16 0 01.238.936 1.09 1.09 0 01-.328.611s1.133 1.568 1.8 2.38a17.552 17.552 0 002.68 2.626 14.189 14.189 0 009.506 2.907 14.52 14.52 0 005.12-1.282A54.493 54.493 0 0046.75 23.8c1.252-.772 5.37-3.234 7.455-1.483a2.256 2.256 0 01.824 1.63 3.04 3.04 0 01-1.02 2.278 8.373 8.373 0 01-4.471 1.814 14.528 14.528 0 01-2.99.054 9.866 9.866 0 01-.604-.732c.228.032.668.046.668.046a17.103 17.103 0 001.835-.07 11.339 11.339 0 003.603-.92 3.535 3.535 0 001.921-1.988 1.47 1.47 0 00-.178-1.231c-.394-.605-1.712-.9-3.674-.116a14.758 14.758 0 00-2.308 1.141c-.44.253-3.988 2.418-5.642 3.176-3.208 1.465-6.162 2.091-8.991 1.534a13.025 13.025 0 01-6.283-2.89 19.577 19.577 0 01-3.445-3.687c-.707-.956-1.15-1.735-1.282-1.937-.055-.081-.251-.01-.479-.032a1.325 1.325 0 01-.56-.201" data-name="Fill 23"/><path fill="#fffffe" d="M24.199 21.132a12.01 12.01 0 003.613 2.384c-.087.141-.683.98-.683.98a18.508 18.508 0 01-1.724-1.512 19.141 19.141 0 01-1.403-1.606 1.52 1.52 0 00.197-.246" data-name="Fill 25"/><path fill="#fffffe" d="M56.155 37.939a10.007 10.007 0 01-3.432 7.208 14.039 14.039 0 01-8.424 3.237 18.33 18.33 0 01-6.044-.65 9.992 9.992 0 00-1.934-.403 2.092 2.092 0 00-.783.132l-.072-.006h-.313a1.844 1.844 0 01-.17.288 2.62 2.62 0 01-2.423 1.245 13.652 13.652 0 01-2.148-.134 1.247 1.247 0 00-.227.076 5.197 5.197 0 01-2.703.388 21.731 21.731 0 01-4.05-.774c-1.055-.302-1.372-.375-1.697-.202a.302.302 0 00-.137.391 14.556 14.556 0 00.906 2.302 5.138 5.138 0 001.357 1.76c.555.428 1.033.743 1.146 1.534a1.127 1.127 0 01-.314.9 1.12 1.12 0 00.605.242 7.627 7.627 0 001.271-.418c.313-.085.868-.21 1.274.69a6.079 6.079 0 01.772.444 1.54 1.54 0 01.473 1.425 19.976 19.976 0 01-.48 3.434c-.026.116-.135.041-.194.01-.06-.033-2.2-1.542-2.332-1.635-.133-.092-.237-.167-.237-.167a1.019 1.019 0 01-1.094-.403 6.675 6.675 0 00-1.348-1.464 13.276 13.276 0 01-1.914-.994 4.24 4.24 0 01-.996-1.702c-.327-.834-.976-2.565-1.245-3.139a14.551 14.551 0 00-1.229-2.078 2.047 2.047 0 01-.515-1.544 2.977 2.977 0 01.706-1.741 1.879 1.879 0 01.546-1.171c.503-.455 1.187-.698 2.839-.868a9.128 9.128 0 003.68-1.019 1.732 1.732 0 00.365-.262c.058-.074-.05-.08-.486.18a4.352 4.352 0 01-2.194.184 6.118 6.118 0 01-3.325-1.677 14.468 14.468 0 01-2.633-3.384 32.202 32.202 0 01-1.241-3.4 4.882 4.882 0 00-1.003-1.888c-.48-.439-1.153.202-1.357.363a11.525 11.525 0 00-1.676 1.642c-.158.202-.403.479-.411.656a8.261 8.261 0 01-.254 1.348.991.991 0 01-.831.73 1.612 1.612 0 01-.635-.1 1.673 1.673 0 00.574.792c.513.463.892.977.801 1.432a.954.954 0 01-.526.682s-.047.37-.056.555a1.167 1.167 0 01-.72.99 16.522 16.522 0 01-3.21.8 2.317 2.317 0 01-.75.058s-.05-.032-.025-.134c.024-.102.597-2.217.647-2.438a.92.92 0 01.143-.337.919.919 0 01-.252-1.077 6.937 6.937 0 00.682-1.692 6.531 6.531 0 01.379-1.979A4.57 4.57 0 018.688 33.6c.556-.487 1.28-1.109 1.802-1.66a29.325 29.325 0 011.86-2.386 2.62 2.62 0 012.138-.642.403.403 0 00.262-.031 1.225 1.225 0 011.31-.17 5.837 5.837 0 011.68 1.584 6.942 6.942 0 002.576 1.814 8.563 8.563 0 012.386 1.674 3.393 3.393 0 01.892-.948 2.562 2.562 0 01.883-.376c.071-.01.071.096.071.096a9.202 9.202 0 00.31 1.713 1.024 1.024 0 00.185.201 10.726 10.726 0 01-.156-3.495 10.247 10.247 0 01.474-2.371 8.571 8.571 0 011.09-2.257 13.372 13.372 0 004.272 2.787 12.537 12.537 0 008.086.1 23.158 23.158 0 005.687-2.497l.116.135s.533.604 1.181 1.368c.843.993 1.78 1.193 3.303 1.382 2.317.286 4.108.444 5.372 1.814 1.152 1.258 1.882 4.146 1.687 6.505" data-name="Fill 27"/><path fill="#fffffe" d="M21.982 20.662c.033.063.392.84.569 1.108 0 0 .028.085-.232.093a.741.741 0 01-.571-.236.871.871 0 01-.093-.454 2.495 2.495 0 01.09-.561.907.907 0 00.159.006s.043-.017.078.044" data-name="Fill 29"/><path fill="#d8232a" d="M27.877 9.59c-.032.022-.068.04-.092.023-.114-.085-.302-.22-.409-.309a19.393 19.393 0 00-1.1-.828 2.637 2.637 0 00-2.677-.566l-.062-.009c.735-.474 1.53-.528 3.022.546.202.142 1.09.817 1.204.907.028.025.046 0 .079-.018a1.068 1.068 0 01.522-.135 1.198 1.198 0 01.447.065 7.91 7.91 0 00.67-1.188 2.17 2.17 0 00.134-1.712 1.435 1.435 0 01.153 1.378 6.073 6.073 0 01-.883 1.77.027.027 0 01-.035.012.934.934 0 00-.45-.092 1.036 1.036 0 00-.522.155" data-name="Fill 31"/><path fill="#d8232a" d="M37.983 4.402a4.52 4.52 0 00-1.216-.046 4.165 4.165 0 00-2.152.675 15.148 15.148 0 00-1.204.981 5.642 5.642 0 01-.705.389 2.693 2.693 0 001.404-.705 4.979 4.979 0 012.02-1.09 14.74 14.74 0 011.853-.2" data-name="Fill 33"/><path fill="#d8232a" d="M39.863 7.136a2.922 2.922 0 001.538-.423 6.07 6.07 0 01-1.834.254 4.241 4.241 0 00-1.894.281 3.548 3.548 0 00-1.124.756 1.15 1.15 0 00-.212.272s.202-.141.544-.374a4.578 4.578 0 01.753-.423 4.948 4.948 0 012.23-.343" data-name="Fill 35"/><path fill="#d8232a" d="M43.35 10.733a2.36 2.36 0 00.947.022 4.666 4.666 0 01-.87-.09 7.562 7.562 0 00-1.97-.503 3.252 3.252 0 00-1.747.544 1.73 1.73 0 00-.57.572 3.874 3.874 0 01.646-.437 3.752 3.752 0 011.712-.456 6.958 6.958 0 011.852.348" data-name="Fill 37"/><path fill="#d8232a" d="M43.481 14.484a9.108 9.108 0 012.093.88 2.47 2.47 0 00.863.174 3.49 3.49 0 01-.937-.324 7.894 7.894 0 00-1.69-.833 3.212 3.212 0 00-1.891.013 2.663 2.663 0 00-.815.385 4.748 4.748 0 00.579-.16 3.792 3.792 0 011.798-.135" data-name="Fill 39"/><path fill="#d8232a" d="M44.532 19.973a2.27 2.27 0 00.743.18 1.566 1.566 0 00.65-.126h-.336a2.798 2.798 0 01-.962-.189 2.976 2.976 0 01-.992-.623 2.047 2.047 0 00-1.007-.604 2.184 2.184 0 00-.923.025 2.725 2.725 0 011.015.187 2.3 2.3 0 01.67.412 3.413 3.413 0 001.14.738" data-name="Fill 41"/><path fill="#d8232a" d="M18.924 19.922c-.034.362.362.614.63.614.27 0 .49-.252.303-.741a1.368 1.368 0 00-.738-.727c-.058-.014-.143.08-.143.08s-.047.055.034.067c.058.008.077.008.211.092a.542.542 0 01.192.228.393.393 0 00-.49.387" data-name="Fill 43"/><path fill="#d8232a" d="M22.73 12.193a.574.574 0 00.036.248.957.957 0 00.806.62.972.972 0 00.82-.327.953.953 0 00.19-.67.855.855 0 00.404-.089.846.846 0 00.31-.396.736.736 0 00.036-.33 1.028 1.028 0 01-.136.22.705.705 0 01-.418.276.749.749 0 01-.478-.1c-.012-.022-.038 0-.077.01a.08.08 0 00-.05.033 1.329 1.329 0 01.034.314.572.572 0 01-.266.448.584.584 0 01-.296.114 1.538 1.538 0 00.158-.72.274.274 0 00-.1-.23.556.556 0 00-.34-.063.747.747 0 00-.51.307.43.43 0 01-.337.082 1.74 1.74 0 01-.403-.07.967.967 0 00.18.176 1.063 1.063 0 00.438.147" data-name="Fill 45"/><path fill="#d8232a" d="M23.342 10.896a.69.69 0 00-.57.384 2.795 2.795 0 00-.118.399c0 .027.059.023.059.023a1.38 1.38 0 01.194-.302.833.833 0 01.834-.256 2.85 2.85 0 01.425.117s.05.041.062 0c0-.017-.03-.045-.03-.045a1.798 1.798 0 00-.16-.111 1.067 1.067 0 00-.696-.209" data-name="Fill 47"/><path fill="#d8232a" d="M25.305 15.646c.718-.932 1.39-1.944 2.034-2.928.19-.29.392-.59.575-.884a1.261 1.261 0 01.104-.15c.036-.043.212-.005.308.012a1.221 1.221 0 001.143-.504 1.122 1.122 0 00-.025-1.41.06.06 0 010-.034.403.403 0 01.03-.045 5.228 5.228 0 00.543-1.007 3.608 3.608 0 00.355-1.403 1.505 1.505 0 00-.668-1.25 1.794 1.794 0 01.458 1.41 5.487 5.487 0 01-.978 2.304l.058.076a1.034 1.034 0 01-1.085 1.64 1.317 1.317 0 01-.207-.08l-.25.387a74.96 74.96 0 01-.573.906 68.526 68.526 0 01-1.294 1.905c-.38.544-.78 1.074-1.192 1.594a68.103 68.103 0 01-1.612 1.926c-.25.288-.35.424-.35.424s.14.012.371-.233c0 0 1.297-1.41 2.255-2.657" data-name="Fill 49"/><path fill="#d8232a" d="M41.559 46.497a14.338 14.338 0 007.153-.89 12.03 12.03 0 004.213-2.781 15.475 15.475 0 01-5.674 2.945 19.392 19.392 0 01-6.987.202c-2.356-.255-2.847.137-2.847.137a13.65 13.65 0 014.142.387" data-name="Fill 51"/><path fill="#d8232a" d="M39.842 40.13a5.642 5.642 0 001.244-3.233s-.17.43-.495 1.34a6.172 6.172 0 01-1.437 2.197 10.712 10.712 0 01-2.182 1.55 5.082 5.082 0 002.87-1.853" data-name="Fill 53"/><path fill="#d8232a" d="M30.48 45.672a3.995 3.995 0 01-2.484.936 19.234 19.234 0 01-3.538.049.564.564 0 00-.336.084 23.559 23.559 0 004.13.15c2.182-.161 2.712-.763 2.999-1.196a.898.898 0 00-.32-1.41 4.175 4.175 0 00-1.929-.391.269.269 0 00.258.127 2.532 2.532 0 011.336.531c.379.319.337.7-.117 1.12" data-name="Fill 55"/><path fill="#d8232a" d="M20.368 47.822a3.204 3.204 0 00-.15.318 1.289 1.289 0 01-.56.574.806.806 0 01-.428.047c.007-.003-.02.062-.02.062a2.6 2.6 0 01.822 1.07c.386.898.647 1.454.853 1.836a2.376 2.376 0 00.292.454.284.284 0 00.133.1 8.805 8.805 0 01-1.041-3.34 2.239 2.239 0 01.15-1.127.443.443 0 01-.055.006" data-name="Fill 57"/><path fill="#d8232a" d="M21.928 39.221c-.549.05-.936-.302-1.713-1.239a21.47 21.47 0 01-1.888-2.845 26.7 26.7 0 00-.731-1.203s.278.665.682 1.532a25.96 25.96 0 001.279 2.443c.488.816 1.324 1.993 2.147 2.002.823.01 1.293-.674 1.249-1.607a4.27 4.27 0 00-.758-1.836 4.332 4.332 0 01.454 1.76c-.019.515-.231.949-.725.993" data-name="Fill 59"/><path fill="#d8232a" d="M12.587 31.137l-.086.012a1.725 1.725 0 01-.454.887c-.22.28-.571.628-.872.946l-1.192 1.25s1.096-.928 1.367-1.18a5.228 5.228 0 011.587-1.135 1.612 1.612 0 01.69-.1l.037-.111a1.165 1.165 0 01-.705-.096.858.858 0 01-.372-.473" data-name="Fill 61"/><path fill="#d8232a" d="M22.862 33.379a1.261 1.261 0 00-.236.302 7.17 7.17 0 011.217 1.63 6.951 6.951 0 01.665 1.594 5.378 5.378 0 00-.443-1.633 5.775 5.775 0 00-1.203-1.893" data-name="Fill 63"/><path fill="#d8232a" d="M40.686 31.211a5.602 5.602 0 011.165 1.92c.02.18.1.18.1.18a3.194 3.194 0 00-.257-1.02 3.886 3.886 0 00-1.122-1.518 3.857 3.857 0 00-1.753-.836.412.412 0 00.201.14 4.32 4.32 0 011.666 1.134" data-name="Fill 65"/><path fill="#d8232a" d="M27.51 5.771a1.197 1.197 0 01-.746-.641 4.654 4.654 0 01-.439-1.274.756.756 0 00-.182-.377s.054.176.069.255c.043.21.074.524.128.898a1.739 1.739 0 00.37.916.938.938 0 00.977.409.331.331 0 00.213-.293.392.392 0 01-.392.108" data-name="Fill 67"/><path fill="#d8232a" d="M22.687 17.79c.132-.145.43-.478.642-.718a50.954 50.954 0 001.624-2c.931-1.188 1.845-2.67 2.68-3.935a2.952 2.952 0 01-.154-.254 1.096 1.096 0 01-.056-.658 1.174 1.174 0 01.07-.201c.047-.101-.11-.23-.18-.296-.07-.066-.267-.223-.374-.318a4.836 4.836 0 00-3.06-1.47 6.503 6.503 0 012.747 1.451s.51.46.549.499c.038.039.027.019.07.063a.12.12 0 01.005.116 1.164 1.164 0 00-.08.452.833.833 0 00.19.578.135.135 0 01-.013.1c-.024.046-1.837 2.898-2.837 4.18a50.173 50.173 0 01-1.554 1.903c-.192.224-.391.44-.588.66 0 0-.044.047-.074.025a1.209 1.209 0 00-.55-.154 1.177 1.177 0 00-.552.08c-.019.008-.043-.018-.043-.018a5.99 5.99 0 00-.695-.665 2.04 2.04 0 00-.898-.443.126.126 0 00-.124.046c-.095.083-.056.1 0 .11a1.081 1.081 0 01.391.126 2.455 2.455 0 01.748.516c.317.295.487.477.526.521.068.076.123.069.158.053a.964.964 0 01.317-.085 1.184 1.184 0 01.463.041 1.403 1.403 0 01.224.083c.01 0 .042.022.065.008a2.922 2.922 0 00.368-.397" data-name="Fill 69"/><path fill="#d8232a" d="M26.129 6.153a.994.994 0 00.67.248.73.73 0 00.44-.112 1.32 1.32 0 01-1.237-.669 1.776 1.776 0 01-.23-.61c-.04-.02-.262-.14-.262-.14 0 .02.096.45.101.472a1.887 1.887 0 00.517.806" data-name="Fill 71"/><path fill="#d8232a" d="M29.444 24.655c-.04.046-.049.07-.023.084a.076.076 0 00.056.006 20.31 20.31 0 001.757-2.13c1.65-2.373 2.859-4.664 2.185-7.441a10.055 10.055 0 00-2.97-4.715c-.02.044.134.201.134.201a17.24 17.24 0 011.72 2.582 7.078 7.078 0 01.57 5.726c-.551 2.034-2.814 4.982-3.425 5.686" data-name="Fill 73"/><path fill="#d8232a" d="M35.448 47.99a8.14 8.14 0 00.668-2.486 3.987 3.987 0 01.56-1.444 2.793 2.793 0 00.301-1.461 4.513 4.513 0 01-.722 1.625 4.091 4.091 0 00-.605 1.31 11.995 11.995 0 01-.516 1.956z" data-name="Fill 75"/><path fill="#d8232a" d="M26.272 58.848a.333.333 0 00.119-.05 5.164 5.164 0 00.944-1.182 8.996 8.996 0 00.586-1.155 2.234 2.234 0 00.186-.585c.012-.128-.28-.262-.268-.144a1.937 1.937 0 01-.132.543c-.045.117-.276.689-.573 1.297a4.39 4.39 0 01-.882 1.276z" data-name="Fill 77"/><path fill="#d8232a" d="M6.88 39.97c.093.007.132 0 .356.008a10.85 10.85 0 012.097.28 4.297 4.297 0 011.12.435v-.182l.004-.078a6.63 6.63 0 00-3.272-.55c-.204.011-.224.017-.328.025-.104.008-.069.062.023.062" data-name="Fill 79"/><path fill="#d8232a" d="M28.867 38.619a6.347 6.347 0 00-2.837 2.043 7.086 7.086 0 01-.158-3.93 8.536 8.536 0 012.57-4.442 10.797 10.797 0 012.8-1.759 8.22 8.22 0 00-4.165 2.72 8.223 8.223 0 00-1.904 3.61 6.282 6.282 0 00-.06 3.26 4.185 4.185 0 00.261.832V41a3.022 3.022 0 01-.258 2.124l.201-.037a1.02 1.02 0 00.384-.278 3.425 3.425 0 00.313-.806l.006.006a5.193 5.193 0 012.151-2.484 5.345 5.345 0 014.192-.806 6.425 6.425 0 012.136.847 5.466 5.466 0 00-5.632-.947" data-name="Fill 81"/><path fill="#d8232a" d="M29.374 5.338a1.417 1.417 0 01-.492.123 1.65 1.65 0 01-.196 1.057 1.027 1.027 0 01-.786.53c-.277.032-.513-.065-.445.007a.669.669 0 00.368.148 1.137 1.137 0 001.04-.37 2.173 2.173 0 00.448-.876 1.98 1.98 0 00.063-.619" data-name="Fill 83"/></svg>